<svg width="32" height="32" viewBox="0 0 32 32" fill="none" xmlns="http://www.w3.org/2000/svg">
<rect width="32" height="32" rx="16" transform="matrix(1 0 0 -1 0 32)" fill="#FF3E7A"/>
<path d="M14 25.1667C14 25.25 13.6333 25.3333 13.1667 25.3333C12.7167 25.3333 12.3333 25.4 12.3333 25.5C12.3333 25.5833 12.0333 25.6667 11.6667 25.6667C11.3 25.6667 11 25.7333 11 25.8333C11 25.9167 10.85 26 10.6667 26C10.4833 26 10.3333 26.0667 10.3333 26.1667C10.3333 26.25 10.1167 26.3333 9.83333 26.3333C9.56667 26.3333 9.33333 26.4 9.33333 26.5C9.33333 26.5833 9.18333 26.6667 9 26.6667C8.81667 26.6667 8.66667 26.7333 8.66667 26.8333C8.66667 26.9167 8.51667 27 8.33333 27C8.15 27 8 27.0667 8 27.1667C8 27.25 7.85 27.3333 7.66667 27.3333C7.48333 27.3333 7.33333 27.4 7.33333 27.5C7.33333 27.5833 7.21667 27.6667 7.08333 27.6667C6.93333 27.6667 6.41667 28.0833 5.91667 28.5833C5.1 29.3833 5 29.5667 5 30.1667C5 30.7167 5.11667 30.95 5.58333 31.4167L6.15 32H16H25.85L26.4167 31.4167C26.8833 30.95 27 30.7167 27 30.1667C27 29.5667 26.9 29.3833 26.0833 28.5833C25.5833 28.0833 25.0667 27.6667 24.9167 27.6667C24.7833 27.6667 24.6667 27.5833 24.6667 27.5C24.6667 27.4 24.5167 27.3333 24.3333 27.3333C24.15 27.3333 24 27.25 24 27.1667C24 27.0667 23.85 27 23.6667 27C23.4833 27 23.3333 26.9167 23.3333 26.8333C23.3333 26.7333 23.1833 26.6667 23 26.6667C22.8167 26.6667 22.6667 26.5833 22.6667 26.5C22.6667 26.4 22.5167 26.3333 22.3333 26.3333C22.15 26.3333 22 26.25 22 26.1667C22 26.0667 21.7833 26 21.5 26C21.2333 26 21 25.9167 21 25.8333C21 25.7333 20.7 25.6667 20.3333 25.6667C19.9667 25.6667 19.6667 25.5833 19.6667 25.5C19.6667 25.4 19.3 25.3333 18.8333 25.3333C18.3833 25.3333 18 25.25 18 25.1667C18 25.0667 17.2167 25 16 25C14.7833 25 14 25.0667 14 25.1667Z" fill="white"/>
<path d="M14.6667 9.16667C14.6667 9.25 14.45 9.33333 14.1667 9.33333C13.9 9.33333 13.6667 9.4 13.6667 9.5C13.6667 9.58333 13.5167 9.66667 13.3333 9.66667C13.15 9.66667 13 9.73333 13 9.83333C13 9.91667 12.8833 10 12.75 10C12.4167 10 11 11.4167 11 11.75C11 11.8833 10.9333 12 10.8333 12C10.75 12 10.6667 12.15 10.6667 12.3333C10.6667 12.5167 10.6 12.6667 10.5 12.6667C10.4167 12.6667 10.3333 12.8833 10.3333 13.1667C10.3333 13.4333 10.2667 13.6667 10.1667 13.6667C10.0667 13.6667 10 14.3833 10 15.5C10 16.6167 10.0667 17.3333 10.1667 17.3333C10.2667 17.3333 10.3333 17.55 10.3333 17.8333C10.3333 18.1 10.4167 18.3333 10.5 18.3333C10.6 18.3333 10.6667 18.4833 10.6667 18.6667C10.6667 18.85 10.75 19 10.8333 19C10.9333 19 11 19.1167 11 19.25C11 19.5833 12.4167 21 12.75 21C12.8833 21 13 21.0667 13 21.1667C13 21.25 13.15 21.3333 13.3333 21.3333C13.5167 21.3333 13.6667 21.4 13.6667 21.5C13.6667 21.5833 13.9 21.6667 14.1667 21.6667C14.45 21.6667 14.6667 21.7333 14.6667 21.8333C14.6667 21.9333 15.2167 22 16 22C16.7833 22 17.3333 21.9333 17.3333 21.8333C17.3333 21.7333 17.5667 21.6667 17.8333 21.6667C18.1167 21.6667 18.3333 21.5833 18.3333 21.5C18.3333 21.4 18.4833 21.3333 18.6667 21.3333C18.85 21.3333 19 21.25 19 21.1667C19 21.0667 19.1167 21 19.25 21C19.5833 21 21 19.5833 21 19.25C21 19.1167 21.0833 19 21.1667 19C21.2667 19 21.3333 18.85 21.3333 18.6667C21.3333 18.4833 21.4167 18.3333 21.5 18.3333C21.6 18.3333 21.6667 18.1 21.6667 17.8333C21.6667 17.55 21.75 17.3333 21.8333 17.3333C21.9333 17.3333 22 16.6167 22 15.5C22 14.3833 21.9333 13.6667 21.8333 13.6667C21.75 13.6667 21.6667 13.4333 21.6667 13.1667C21.6667 12.8833 21.6 12.6667 21.5 12.6667C21.4167 12.6667 21.3333 12.5167 21.3333 12.3333C21.3333 12.15 21.2667 12 21.1667 12C21.0833 12 21 11.8833 21 11.75C21 11.4167 19.5833 10 19.25 10C19.1167 10 19 9.91667 19 9.83333C19 9.73333 18.85 9.66667 18.6667 9.66667C18.4833 9.66667 18.3333 9.58333 18.3333 9.5C18.3333 9.4 18.1167 9.33333 17.8333 9.33333C17.5667 9.33333 17.3333 9.25 17.3333 9.16667C17.3333 9.06667 16.7833 9 16 9C15.2167 9 14.6667 9.06667 14.6667 9.16667Z" fill="white"/>
</svg>
