<svg width="80" height="80" viewBox="0 0 80 80" fill="none" xmlns="http://www.w3.org/2000/svg">
<rect width="80" height="80" rx="40" transform="matrix(1 0 0 -1 0 80)" fill="#FF3E7A"/>
<path d="M33.2727 57.5476C33.2727 57.8214 32.0394 58.0952 30.4697 58.0952C28.9561 58.0952 27.6667 58.3143 27.6667 58.6429C27.6667 58.9167 26.6576 59.1905 25.4242 59.1905C24.1909 59.1905 23.1818 59.4095 23.1818 59.7381C23.1818 60.0119 22.6773 60.2857 22.0606 60.2857C21.4439 60.2857 20.9394 60.5048 20.9394 60.8333C20.9394 61.1071 20.2106 61.381 19.2576 61.381C18.3606 61.381 17.5758 61.6 17.5758 61.9286C17.5758 62.2024 17.0712 62.4762 16.4545 62.4762C15.8379 62.4762 15.3333 62.6952 15.3333 63.0238C15.3333 63.2976 14.8288 63.5714 14.2121 63.5714C13.5955 63.5714 13.0909 63.7905 13.0909 64.119C13.0909 64.3929 12.5864 64.6667 11.9697 64.6667C11.353 64.6667 10.8485 64.8857 10.8485 65.2143C10.8485 65.4881 10.4561 65.7619 10.0076 65.7619C9.50303 65.7619 7.76515 67.131 6.08333 68.7738C3.33636 71.4024 3 72.0048 3 73.9762C3 75.7833 3.39242 76.55 4.96212 78.0833L6.86818 80H40H73.1318L75.0379 78.0833C76.6076 76.55 77 75.7833 77 73.9762C77 72.0048 76.6636 71.4024 73.9167 68.7738C72.2348 67.131 70.497 65.7619 69.9924 65.7619C69.5439 65.7619 69.1515 65.4881 69.1515 65.2143C69.1515 64.8857 68.647 64.6667 68.0303 64.6667C67.4136 64.6667 66.9091 64.3929 66.9091 64.119C66.9091 63.7905 66.4045 63.5714 65.7879 63.5714C65.1712 63.5714 64.6667 63.2976 64.6667 63.0238C64.6667 62.6952 64.1621 62.4762 63.5455 62.4762C62.9288 62.4762 62.4242 62.2024 62.4242 61.9286C62.4242 61.6 61.9197 61.381 61.303 61.381C60.6864 61.381 60.1818 61.1071 60.1818 60.8333C60.1818 60.5048 59.453 60.2857 58.5 60.2857C57.603 60.2857 56.8182 60.0119 56.8182 59.7381C56.8182 59.4095 55.8091 59.1905 54.5758 59.1905C53.3424 59.1905 52.3333 58.9167 52.3333 58.6429C52.3333 58.3143 51.1 58.0952 49.5303 58.0952C48.0167 58.0952 46.7273 57.8214 46.7273 57.5476C46.7273 57.219 44.0924 57 40 57C35.9076 57 33.2727 57.219 33.2727 57.5476Z" fill="white"/>
<path d="M35.5556 10.5641C35.5556 10.8462 34.8333 11.1282 33.8889 11.1282C33 11.1282 32.2222 11.3538 32.2222 11.6923C32.2222 11.9744 31.7222 12.2564 31.1111 12.2564C30.5 12.2564 30 12.4821 30 12.8205C30 13.1026 29.6111 13.3846 29.1667 13.3846C28.0556 13.3846 23.3333 18.1795 23.3333 19.3077C23.3333 19.759 23.1111 20.1538 22.7778 20.1538C22.5 20.1538 22.2222 20.6615 22.2222 21.2821C22.2222 21.9026 22 22.4103 21.6667 22.4103C21.3889 22.4103 21.1111 23.1436 21.1111 24.1026C21.1111 25.0051 20.8889 25.7949 20.5556 25.7949C20.2222 25.7949 20 28.2205 20 32C20 35.7795 20.2222 38.2051 20.5556 38.2051C20.8889 38.2051 21.1111 38.9385 21.1111 39.8974C21.1111 40.8 21.3889 41.5897 21.6667 41.5897C22 41.5897 22.2222 42.0974 22.2222 42.7179C22.2222 43.3385 22.5 43.8462 22.7778 43.8462C23.1111 43.8462 23.3333 44.241 23.3333 44.6923C23.3333 45.8205 28.0556 50.6154 29.1667 50.6154C29.6111 50.6154 30 50.841 30 51.1795C30 51.4615 30.5 51.7436 31.1111 51.7436C31.7222 51.7436 32.2222 51.9692 32.2222 52.3077C32.2222 52.5897 33 52.8718 33.8889 52.8718C34.8333 52.8718 35.5556 53.0974 35.5556 53.4359C35.5556 53.7744 37.3889 54 40 54C42.6111 54 44.4444 53.7744 44.4444 53.4359C44.4444 53.0974 45.2222 52.8718 46.1111 52.8718C47.0556 52.8718 47.7778 52.5897 47.7778 52.3077C47.7778 51.9692 48.2778 51.7436 48.8889 51.7436C49.5 51.7436 50 51.4615 50 51.1795C50 50.841 50.3889 50.6154 50.8333 50.6154C51.9444 50.6154 56.6667 45.8205 56.6667 44.6923C56.6667 44.241 56.9444 43.8462 57.2222 43.8462C57.5556 43.8462 57.7778 43.3385 57.7778 42.7179C57.7778 42.0974 58.0556 41.5897 58.3333 41.5897C58.6667 41.5897 58.8889 40.8 58.8889 39.8974C58.8889 38.9385 59.1667 38.2051 59.4444 38.2051C59.7778 38.2051 60 35.7795 60 32C60 28.2205 59.7778 25.7949 59.4444 25.7949C59.1667 25.7949 58.8889 25.0051 58.8889 24.1026C58.8889 23.1436 58.6667 22.4103 58.3333 22.4103C58.0556 22.4103 57.7778 21.9026 57.7778 21.2821C57.7778 20.6615 57.5556 20.1538 57.2222 20.1538C56.9444 20.1538 56.6667 19.759 56.6667 19.3077C56.6667 18.1795 51.9444 13.3846 50.8333 13.3846C50.3889 13.3846 50 13.1026 50 12.8205C50 12.4821 49.5 12.2564 48.8889 12.2564C48.2778 12.2564 47.7778 11.9744 47.7778 11.6923C47.7778 11.3538 47.0556 11.1282 46.1111 11.1282C45.2222 11.1282 44.4444 10.8462 44.4444 10.5641C44.4444 10.2256 42.6111 10 40 10C37.3889 10 35.5556 10.2256 35.5556 10.5641Z" fill="white"/>
</svg>
